<?xml version="1.0" standalone="no"?>
<!DOCTYPE svg PUBLIC "-//W3C//DTD SVG 20010904//EN"
 "http://www.w3.org/TR/2001/REC-SVG-20010904/DTD/svg10.dtd">
<svg version="1.0" xmlns="http://www.w3.org/2000/svg"
 width="562.000000pt" height="562.000000pt" viewBox="0 0 562.000000 562.000000"
 preserveAspectRatio="xMidYMid meet">
<metadata>
Created by potrace 1.14, written by Peter Selinger 2001-2017
</metadata>
<g transform="translate(0.000000,562.000000) scale(0.100000,-0.100000)"
fill="#000000" stroke="none">
<path d="M2919 5336 c-2 -2 -38 -6 -79 -10 -41 -3 -86 -8 -100 -10 -14 -3 -41
-7 -60 -10 -51 -8 -93 -16 -110 -21 -8 -2 -31 -7 -50 -11 -41 -7 -50 -9 -70
-17 -8 -3 -55 -17 -105 -32 -49 -14 -97 -29 -105 -32 -8 -4 -17 -7 -20 -7 -34
-7 -283 -122 -365 -168 -139 -79 -305 -194 -394 -271 -70 -62 -155 -143 -206
-197 -46 -48 -74 -80 -156 -177 -23 -28 -100 -137 -115 -165 -25 -43 -32 -42
-58 11 -15 28 -26 53 -26 56 0 3 -24 56 -53 117 -30 62 -60 128 -68 146 -7 17
-17 32 -20 32 -4 0 -14 -17 -22 -37 -8 -21 -36 -83 -62 -138 -26 -55 -55 -118
-65 -140 -10 -22 -35 -75 -55 -119 -20 -43 -50 -106 -65 -140 -25 -55 -43 -93
-121 -261 -13 -27 -24 -52 -24 -55 -1 -3 -15 -34 -32 -70 -65 -139 -107 -229
-179 -387 -15 -32 -28 -60 -29 -63 -2 -3 106 -5 238 -6 147 0 241 -4 240 -10
-11 -69 -14 -107 -18 -207 -3 -65 -7 -123 -10 -128 -4 -5 -3 -9 2 -9 4 0 8
-42 9 -93 1 -86 8 -183 19 -252 5 -29 12 -71 21 -125 18 -100 83 -335 113
-405 5 -11 25 -59 45 -107 20 -48 59 -131 87 -185 51 -99 199 -329 238 -370
12 -12 21 -25 21 -28 0 -3 8 -13 18 -23 9 -11 40 -46 69 -78 58 -66 188 -195
248 -245 76 -65 81 -68 150 -119 171 -127 396 -249 600 -326 52 -19 103 -37
114 -39 11 -2 30 -9 43 -16 13 -7 24 -12 26 -11 1 1 3 2 5 1 1 0 9 -2 17 -4 8
-2 44 -11 80 -20 136 -34 194 -44 355 -62 88 -10 428 -10 518 0 56 6 161 23
262 41 34 7 119 27 135 33 20 8 32 12 50 16 8 2 42 12 75 22 33 10 62 19 65
20 3 1 19 7 35 14 17 7 59 24 95 38 153 62 469 244 533 307 9 9 19 16 22 16
16 0 198 164 289 259 34 36 70 74 81 86 57 60 225 287 225 304 0 5 6 16 13 23
73 73 268 521 303 693 2 11 10 47 19 80 13 52 25 118 41 215 19 126 26 499 11
610 -5 30 -10 78 -13 105 -3 28 -7 56 -10 64 -2 8 -7 30 -10 50 -4 20 -7 41
-9 46 -17 76 -32 131 -51 196 -8 25 -16 54 -19 65 -6 27 -51 147 -76 202 -186
415 -418 720 -749 987 -229 185 -540 351 -812 435 -37 11 -70 21 -73 21 -2 0
-19 5 -37 10 -54 17 -140 37 -188 44 -24 4 -47 8 -50 10 -3 2 -30 6 -60 10
-30 3 -68 8 -85 11 -37 6 -440 15 -446 10z"/>
</g>
</svg>
